<svg xmlns="http://www.w3.org/2000/svg" width="375" viewBox="0 0 375 375" height="375" version="1.0"><defs><clipPath id="a"><path d="M 117.582031 60.128906 L 257.082031 60.128906 L 257.082031 215 L 117.582031 215 Z M 117.582031 60.128906"/></clipPath></defs><path fill="#CB919E" d="M 187.5 0 C 83.945312 0 0 83.945312 0 187.5 C 0 291.054688 83.945312 375 187.5 375 C 291.054688 375 375 291.054688 375 187.5 C 375 83.945312 291.054688 0 187.5 0"/><g clip-path="url(#a)"><path fill="#FFFDFD" d="M 178.628906 190.019531 L 157.429688 190.019531 L 157.429688 133.234375 L 211.652344 133.234375 C 223.445312 155.355469 213.269531 190.019531 178.628906 190.019531 Z M 240.148438 70.484375 L 213.941406 70.484375 L 213.941406 88.316406 C 208.492188 82.652344 194.472656 68.113281 187.453125 60.832031 C 182.890625 65.566406 128.660156 121.828125 117.667969 133.234375 L 129.996094 133.234375 L 129.996094 214.84375 C 180.675781 214.84375 189.824219 216.203125 205.445312 210.023438 C 241.269531 195.851562 250.367188 159.996094 242.207031 133.234375 L 257.234375 133.234375 L 240.148438 115.5 L 240.148438 70.484375"/></g><g fill="#FFFDFD"><g><g><path d="M 18.125 0.601562 C 21.472656 0.601562 24.910156 -0.128906 27.917969 -1.417969 L 27.917969 -16.363281 L 21.730469 -16.363281 L 21.730469 -5.582031 C 20.875 -5.238281 19.714844 -5.066406 18.46875 -5.066406 C 14.042969 -5.066406 8.203125 -7.042969 8.203125 -15.03125 C 8.203125 -22.03125 13.441406 -24.910156 18.8125 -24.910156 C 21.859375 -24.910156 24.910156 -24.09375 27.1875 -22.546875 L 27.1875 -28.734375 C 24.394531 -29.976562 21.175781 -30.664062 17.953125 -30.664062 C 9.707031 -30.664062 1.589844 -25.941406 1.589844 -15.03125 C 1.589844 -3.996094 9.664062 0.601562 18.125 0.601562 Z M 18.125 0.601562" transform="translate(128.397 263.453)"/></g></g></g><g fill="#FFFDFD"><g><g><path d="M 3.222656 0 L 9.664062 0 L 9.664062 -30.0625 L 3.222656 -30.0625 Z M 3.222656 0" transform="translate(169.24 263.453)"/></g></g></g><g fill="#FFFDFD"><g><g><path d="M 18.125 0.601562 C 21.472656 0.601562 24.910156 -0.128906 27.917969 -1.417969 L 27.917969 -16.363281 L 21.730469 -16.363281 L 21.730469 -5.582031 C 20.875 -5.238281 19.714844 -5.066406 18.46875 -5.066406 C 14.042969 -5.066406 8.203125 -7.042969 8.203125 -15.03125 C 8.203125 -22.03125 13.441406 -24.910156 18.8125 -24.910156 C 21.859375 -24.910156 24.910156 -24.09375 27.1875 -22.546875 L 27.1875 -28.734375 C 24.394531 -29.976562 21.175781 -30.664062 17.953125 -30.664062 C 9.707031 -30.664062 1.589844 -25.941406 1.589844 -15.03125 C 1.589844 -3.996094 9.664062 0.601562 18.125 0.601562 Z M 18.125 0.601562" transform="translate(192.863 263.453)"/></g></g></g><g fill="#FFFDFD"><g><g><path d="M 3.222656 0 L 9.664062 0 L 9.664062 -30.0625 L 3.222656 -30.0625 Z M 3.222656 0" transform="translate(233.706 263.453)"/></g></g></g><g fill="#FFFDFD"><g><g><path d="M 10.3125 0.140625 C 8.601562 0.140625 7.054688 -0.238281 5.671875 -1 C 4.296875 -1.757812 3.21875 -2.800781 2.4375 -4.125 C 1.664062 -5.445312 1.28125 -6.9375 1.28125 -8.59375 C 1.28125 -10.25 1.664062 -11.738281 2.4375 -13.0625 C 3.21875 -14.382812 4.296875 -15.425781 5.671875 -16.1875 C 7.054688 -16.945312 8.601562 -17.328125 10.3125 -17.328125 C 12.007812 -17.328125 13.539062 -16.953125 14.90625 -16.203125 C 16.28125 -15.453125 17.359375 -14.410156 18.140625 -13.078125 C 18.921875 -11.742188 19.3125 -10.25 19.3125 -8.59375 C 19.3125 -6.9375 18.921875 -5.441406 18.140625 -4.109375 C 17.359375 -2.773438 16.28125 -1.734375 14.90625 -0.984375 C 13.539062 -0.234375 12.007812 0.140625 10.3125 0.140625 Z M 10.3125 -1.46875 C 11.664062 -1.46875 12.890625 -1.773438 13.984375 -2.390625 C 15.085938 -3.003906 15.945312 -3.851562 16.5625 -4.9375 C 17.1875 -6.03125 17.5 -7.25 17.5 -8.59375 C 17.5 -9.9375 17.1875 -11.148438 16.5625 -12.234375 C 15.945312 -13.328125 15.085938 -14.175781 13.984375 -14.78125 C 12.890625 -15.394531 11.664062 -15.703125 10.3125 -15.703125 C 8.945312 -15.703125 7.710938 -15.394531 6.609375 -14.78125 C 5.503906 -14.175781 4.632812 -13.328125 4 -12.234375 C 3.375 -11.148438 3.0625 -9.9375 3.0625 -8.59375 C 3.0625 -7.25 3.375 -6.03125 4 -4.9375 C 4.632812 -3.851562 5.503906 -3.003906 6.609375 -2.390625 C 7.710938 -1.773438 8.945312 -1.46875 10.3125 -1.46875 Z M 10.3125 -1.46875" transform="translate(92.654 300.272)"/></g></g></g><g fill="#FFFDFD"><g><g><path d="M 14.53125 0 L 10.609375 -5.515625 C 10.160156 -5.472656 9.703125 -5.453125 9.234375 -5.453125 L 4.609375 -5.453125 L 4.609375 0 L 2.796875 0 L 2.796875 -17.1875 L 9.234375 -17.1875 C 11.421875 -17.1875 13.132812 -16.660156 14.375 -15.609375 C 15.625 -14.566406 16.25 -13.128906 16.25 -11.296875 C 16.25 -9.953125 15.910156 -8.816406 15.234375 -7.890625 C 14.554688 -6.960938 13.585938 -6.296875 12.328125 -5.890625 L 16.515625 0 Z M 9.1875 -7 C 10.882812 -7 12.179688 -7.375 13.078125 -8.125 C 13.984375 -8.875 14.4375 -9.929688 14.4375 -11.296875 C 14.4375 -12.679688 13.984375 -13.742188 13.078125 -14.484375 C 12.179688 -15.234375 10.882812 -15.609375 9.1875 -15.609375 L 4.609375 -15.609375 L 4.609375 -7 Z M 9.1875 -7" transform="translate(117.904 300.272)"/></g></g></g><g fill="#FFFDFD"><g><g><path d="M 14.90625 -8.59375 L 16.640625 -8.59375 L 16.640625 -2.03125 C 15.835938 -1.332031 14.890625 -0.796875 13.796875 -0.421875 C 12.703125 -0.046875 11.546875 0.140625 10.328125 0.140625 C 8.609375 0.140625 7.0625 -0.234375 5.6875 -0.984375 C 4.320312 -1.734375 3.242188 -2.773438 2.453125 -4.109375 C 1.671875 -5.441406 1.28125 -6.9375 1.28125 -8.59375 C 1.28125 -10.25 1.671875 -11.742188 2.453125 -13.078125 C 3.242188 -14.410156 4.320312 -15.453125 5.6875 -16.203125 C 7.0625 -16.953125 8.617188 -17.328125 10.359375 -17.328125 C 11.671875 -17.328125 12.875 -17.117188 13.96875 -16.703125 C 15.0625 -16.285156 15.984375 -15.664062 16.734375 -14.84375 L 15.609375 -13.703125 C 14.253906 -15.035156 12.53125 -15.703125 10.4375 -15.703125 C 9.039062 -15.703125 7.78125 -15.394531 6.65625 -14.78125 C 5.539062 -14.175781 4.660156 -13.328125 4.015625 -12.234375 C 3.378906 -11.148438 3.0625 -9.9375 3.0625 -8.59375 C 3.0625 -7.25 3.378906 -6.035156 4.015625 -4.953125 C 4.660156 -3.878906 5.539062 -3.03125 6.65625 -2.40625 C 7.769531 -1.78125 9.019531 -1.46875 10.40625 -1.46875 C 12.175781 -1.46875 13.675781 -1.910156 14.90625 -2.796875 Z M 14.90625 -8.59375" transform="translate(140.307 300.272)"/></g></g></g><g fill="#FFFDFD"><g><g><path d="M 13.578125 -4.59375 L 4 -4.59375 L 1.9375 0 L 0.046875 0 L 7.90625 -17.1875 L 9.703125 -17.1875 L 17.546875 0 L 15.640625 0 Z M 12.90625 -6.0625 L 8.78125 -15.296875 L 4.65625 -6.0625 Z M 12.90625 -6.0625" transform="translate(163.937 300.272)"/></g></g></g><g fill="#FFFDFD"><g><g><path d="M 17.15625 -17.1875 L 17.15625 0 L 15.65625 0 L 4.609375 -13.9375 L 4.609375 0 L 2.796875 0 L 2.796875 -17.1875 L 4.296875 -17.1875 L 15.359375 -3.234375 L 15.359375 -17.1875 Z M 17.15625 -17.1875" transform="translate(186.193 300.272)"/></g></g></g><g fill="#FFFDFD"><g><g><path d="M 2.796875 -17.1875 L 4.609375 -17.1875 L 4.609375 0 L 2.796875 0 Z M 2.796875 -17.1875" transform="translate(210.805 300.272)"/></g></g></g><g fill="#FFFDFD"><g><g><path d="M 15.1875 -1.578125 L 15.1875 0 L 1.109375 0 L 1.109375 -1.25 L 12.5 -15.609375 L 1.28125 -15.609375 L 1.28125 -17.1875 L 14.90625 -17.1875 L 14.90625 -15.9375 L 3.53125 -1.578125 Z M 15.1875 -1.578125" transform="translate(222.878 300.272)"/></g></g></g><g fill="#FFFDFD"><g><g><path d="M 14.953125 -1.578125 L 14.953125 0 L 2.796875 0 L 2.796875 -17.1875 L 14.578125 -17.1875 L 14.578125 -15.609375 L 4.609375 -15.609375 L 4.609375 -9.5 L 13.5 -9.5 L 13.5 -7.953125 L 4.609375 -7.953125 L 4.609375 -1.578125 Z M 14.953125 -1.578125" transform="translate(243.515 300.272)"/></g></g></g><g fill="#FFFDFD"><g><g><path d="M 14.53125 0 L 10.609375 -5.515625 C 10.160156 -5.472656 9.703125 -5.453125 9.234375 -5.453125 L 4.609375 -5.453125 L 4.609375 0 L 2.796875 0 L 2.796875 -17.1875 L 9.234375 -17.1875 C 11.421875 -17.1875 13.132812 -16.660156 14.375 -15.609375 C 15.625 -14.566406 16.25 -13.128906 16.25 -11.296875 C 16.25 -9.953125 15.910156 -8.816406 15.234375 -7.890625 C 14.554688 -6.960938 13.585938 -6.296875 12.328125 -5.890625 L 16.515625 0 Z M 9.1875 -7 C 10.882812 -7 12.179688 -7.375 13.078125 -8.125 C 13.984375 -8.875 14.4375 -9.929688 14.4375 -11.296875 C 14.4375 -12.679688 13.984375 -13.742188 13.078125 -14.484375 C 12.179688 -15.234375 10.882812 -15.609375 9.1875 -15.609375 L 4.609375 -15.609375 L 4.609375 -7 Z M 9.1875 -7" transform="translate(264.593 300.272)"/></g></g></g></svg>