<svg xmlns="http://www.w3.org/2000/svg" width="375" viewBox="0 0 375 375" height="375" version="1.0"><defs><clipPath id="a"><path d="M 89.578125 16 L 285.328125 16 L 285.328125 233 L 89.578125 233 Z M 89.578125 16"/></clipPath></defs><path fill="#FFF" d="M-37.5 -37.5H412.5V412.5H-37.5z"/><path fill="#FFF" d="M-37.5 -37.5H412.5V412.5H-37.5z"/><path fill="#CB919E" d="M-37.5 -37.5H412.5V412.5H-37.5z"/><g clip-path="url(#a)"><path fill="#FFFDFD" d="M 175.242188 197.136719 L 145.496094 197.136719 L 145.496094 117.53125 L 221.578125 117.53125 C 238.128906 148.542969 223.847656 197.136719 175.242188 197.136719 Z M 261.570312 29.566406 L 224.792969 29.566406 L 224.792969 54.558594 C 217.144531 46.621094 197.472656 26.242188 187.621094 16.03125 C 181.222656 22.664062 105.125 101.539062 89.699219 117.53125 L 107 117.53125 L 107 231.933594 C 178.113281 231.933594 190.953125 233.839844 212.871094 225.179688 C 263.140625 205.3125 275.902344 155.046875 264.453125 117.53125 L 285.542969 117.53125 L 261.570312 92.667969 L 261.570312 29.566406"/></g><g fill="#FFFDFD"><g><g><path d="M 25.382812 0.84375 C 30.074219 0.84375 34.886719 -0.179688 39.097656 -1.984375 L 39.097656 -22.917969 L 30.4375 -22.917969 L 30.4375 -7.820312 C 29.234375 -7.339844 27.609375 -7.097656 25.863281 -7.097656 C 19.667969 -7.097656 11.488281 -9.863281 11.488281 -21.050781 C 11.488281 -30.855469 18.828125 -34.886719 26.347656 -34.886719 C 30.617188 -34.886719 34.886719 -33.746094 38.074219 -31.578125 L 38.074219 -40.242188 C 34.164062 -41.984375 29.652344 -42.949219 25.144531 -42.949219 C 13.59375 -42.949219 2.226562 -36.332031 2.226562 -21.050781 C 2.226562 -5.59375 13.535156 0.84375 25.382812 0.84375 Z M 25.382812 0.84375" transform="translate(104.726 299.8)"/></g></g></g><g fill="#FFFDFD"><g><g><path d="M 4.511719 0 L 13.535156 0 L 13.535156 -42.105469 L 4.511719 -42.105469 Z M 4.511719 0" transform="translate(161.927 299.8)"/></g></g></g><g fill="#FFFDFD"><g><g><path d="M 25.382812 0.84375 C 30.074219 0.84375 34.886719 -0.179688 39.097656 -1.984375 L 39.097656 -22.917969 L 30.4375 -22.917969 L 30.4375 -7.820312 C 29.234375 -7.339844 27.609375 -7.097656 25.863281 -7.097656 C 19.667969 -7.097656 11.488281 -9.863281 11.488281 -21.050781 C 11.488281 -30.855469 18.828125 -34.886719 26.347656 -34.886719 C 30.617188 -34.886719 34.886719 -33.746094 38.074219 -31.578125 L 38.074219 -40.242188 C 34.164062 -41.984375 29.652344 -42.949219 25.144531 -42.949219 C 13.59375 -42.949219 2.226562 -36.332031 2.226562 -21.050781 C 2.226562 -5.59375 13.535156 0.84375 25.382812 0.84375 Z M 25.382812 0.84375" transform="translate(195.01 299.8)"/></g></g></g><g fill="#FFFDFD"><g><g><path d="M 4.511719 0 L 13.535156 0 L 13.535156 -42.105469 L 4.511719 -42.105469 Z M 4.511719 0" transform="translate(252.213 299.8)"/></g></g></g><g fill="#FFFDFD"><g><g><path d="M 14.4375 0.203125 C 12.050781 0.203125 9.890625 -0.328125 7.953125 -1.390625 C 6.015625 -2.453125 4.5 -3.910156 3.40625 -5.765625 C 2.320312 -7.628906 1.78125 -9.71875 1.78125 -12.03125 C 1.78125 -14.34375 2.320312 -16.425781 3.40625 -18.28125 C 4.5 -20.144531 6.015625 -21.609375 7.953125 -22.671875 C 9.890625 -23.734375 12.050781 -24.265625 14.4375 -24.265625 C 16.820312 -24.265625 18.96875 -23.738281 20.875 -22.6875 C 22.789062 -21.632812 24.296875 -20.171875 25.390625 -18.296875 C 26.492188 -16.429688 27.046875 -14.34375 27.046875 -12.03125 C 27.046875 -9.71875 26.492188 -7.625 25.390625 -5.75 C 24.296875 -3.882812 22.789062 -2.425781 20.875 -1.375 C 18.96875 -0.320312 16.820312 0.203125 14.4375 0.203125 Z M 14.4375 -2.0625 C 16.34375 -2.0625 18.0625 -2.488281 19.59375 -3.34375 C 21.125 -4.207031 22.328125 -5.398438 23.203125 -6.921875 C 24.078125 -8.453125 24.515625 -10.15625 24.515625 -12.03125 C 24.515625 -13.90625 24.078125 -15.601562 23.203125 -17.125 C 22.328125 -18.65625 21.125 -19.847656 19.59375 -20.703125 C 18.0625 -21.566406 16.34375 -22 14.4375 -22 C 12.53125 -22 10.800781 -21.566406 9.25 -20.703125 C 7.707031 -19.847656 6.492188 -18.65625 5.609375 -17.125 C 4.734375 -15.601562 4.296875 -13.90625 4.296875 -12.03125 C 4.296875 -10.15625 4.734375 -8.453125 5.609375 -6.921875 C 6.492188 -5.398438 7.707031 -4.207031 9.25 -3.34375 C 10.800781 -2.488281 12.53125 -2.0625 14.4375 -2.0625 Z M 14.4375 -2.0625" transform="translate(54.667 351.366)"/></g></g></g><g fill="#FFFDFD"><g><g><path d="M 20.34375 0 L 14.84375 -7.734375 C 14.226562 -7.660156 13.585938 -7.625 12.921875 -7.625 L 6.46875 -7.625 L 6.46875 0 L 3.921875 0 L 3.921875 -24.0625 L 12.921875 -24.0625 C 15.992188 -24.0625 18.398438 -23.328125 20.140625 -21.859375 C 21.878906 -20.390625 22.75 -18.375 22.75 -15.8125 C 22.75 -13.9375 22.273438 -12.347656 21.328125 -11.046875 C 20.378906 -9.753906 19.019531 -8.820312 17.25 -8.25 L 23.140625 0 Z M 12.859375 -9.796875 C 15.242188 -9.796875 17.066406 -10.320312 18.328125 -11.375 C 19.585938 -12.425781 20.21875 -13.90625 20.21875 -15.8125 C 20.21875 -17.757812 19.585938 -19.253906 18.328125 -20.296875 C 17.066406 -21.335938 15.242188 -21.859375 12.859375 -21.859375 L 6.46875 -21.859375 L 6.46875 -9.796875 Z M 12.859375 -9.796875" transform="translate(90.03 351.366)"/></g></g></g><g fill="#FFFDFD"><g><g><path d="M 20.859375 -12.03125 L 23.3125 -12.03125 L 23.3125 -2.859375 C 22.1875 -1.867188 20.851562 -1.109375 19.3125 -0.578125 C 17.78125 -0.0546875 16.164062 0.203125 14.46875 0.203125 C 12.0625 0.203125 9.894531 -0.320312 7.96875 -1.375 C 6.050781 -2.425781 4.539062 -3.882812 3.4375 -5.75 C 2.332031 -7.625 1.78125 -9.71875 1.78125 -12.03125 C 1.78125 -14.34375 2.332031 -16.429688 3.4375 -18.296875 C 4.539062 -20.171875 6.050781 -21.632812 7.96875 -22.6875 C 9.894531 -23.738281 12.070312 -24.265625 14.5 -24.265625 C 16.332031 -24.265625 18.015625 -23.972656 19.546875 -23.390625 C 21.085938 -22.804688 22.382812 -21.941406 23.4375 -20.796875 L 21.859375 -19.1875 C 19.960938 -21.0625 17.546875 -22 14.609375 -22 C 12.660156 -22 10.898438 -21.566406 9.328125 -20.703125 C 7.765625 -19.847656 6.535156 -18.65625 5.640625 -17.125 C 4.742188 -15.601562 4.296875 -13.90625 4.296875 -12.03125 C 4.296875 -10.15625 4.742188 -8.457031 5.640625 -6.9375 C 6.535156 -5.425781 7.757812 -4.234375 9.3125 -3.359375 C 10.875 -2.492188 12.628906 -2.0625 14.578125 -2.0625 C 17.046875 -2.0625 19.140625 -2.679688 20.859375 -3.921875 Z M 20.859375 -12.03125" transform="translate(121.406 351.366)"/></g></g></g><g fill="#FFFDFD"><g><g><path d="M 19.015625 -6.421875 L 5.609375 -6.421875 L 2.71875 0 L 0.0625 0 L 11.0625 -24.0625 L 13.578125 -24.0625 L 24.578125 0 L 21.890625 0 Z M 18.078125 -8.484375 L 12.3125 -21.421875 L 6.53125 -8.484375 Z M 18.078125 -8.484375" transform="translate(154.5 351.366)"/></g></g></g><g fill="#FFFDFD"><g><g><path d="M 24.03125 -24.0625 L 24.03125 0 L 21.9375 0 L 6.46875 -19.53125 L 6.46875 0 L 3.921875 0 L 3.921875 -24.0625 L 6.015625 -24.0625 L 21.515625 -4.53125 L 21.515625 -24.0625 Z M 24.03125 -24.0625" transform="translate(185.67 351.366)"/></g></g></g><g fill="#FFFDFD"><g><g><path d="M 3.921875 -24.0625 L 6.46875 -24.0625 L 6.46875 0 L 3.921875 0 Z M 3.921875 -24.0625" transform="translate(220.139 351.366)"/></g></g></g><g fill="#FFFDFD"><g><g><path d="M 21.28125 -2.203125 L 21.28125 0 L 1.546875 0 L 1.546875 -1.75 L 17.5 -21.859375 L 1.78125 -21.859375 L 1.78125 -24.0625 L 20.859375 -24.0625 L 20.859375 -22.3125 L 4.953125 -2.203125 Z M 21.28125 -2.203125" transform="translate(237.048 351.366)"/></g></g></g><g fill="#FFFDFD"><g><g><path d="M 20.9375 -2.203125 L 20.9375 0 L 3.921875 0 L 3.921875 -24.0625 L 20.421875 -24.0625 L 20.421875 -21.859375 L 6.46875 -21.859375 L 6.46875 -13.296875 L 18.90625 -13.296875 L 18.90625 -11.140625 L 6.46875 -11.140625 L 6.46875 -2.203125 Z M 20.9375 -2.203125" transform="translate(265.95 351.366)"/></g></g></g><g fill="#FFFDFD"><g><g><path d="M 20.34375 0 L 14.84375 -7.734375 C 14.226562 -7.660156 13.585938 -7.625 12.921875 -7.625 L 6.46875 -7.625 L 6.46875 0 L 3.921875 0 L 3.921875 -24.0625 L 12.921875 -24.0625 C 15.992188 -24.0625 18.398438 -23.328125 20.140625 -21.859375 C 21.878906 -20.390625 22.75 -18.375 22.75 -15.8125 C 22.75 -13.9375 22.273438 -12.347656 21.328125 -11.046875 C 20.378906 -9.753906 19.019531 -8.820312 17.25 -8.25 L 23.140625 0 Z M 12.859375 -9.796875 C 15.242188 -9.796875 17.066406 -10.320312 18.328125 -11.375 C 19.585938 -12.425781 20.21875 -13.90625 20.21875 -15.8125 C 20.21875 -17.757812 19.585938 -19.253906 18.328125 -20.296875 C 17.066406 -21.335938 15.242188 -21.859375 12.859375 -21.859375 L 6.46875 -21.859375 L 6.46875 -9.796875 Z M 12.859375 -9.796875" transform="translate(295.47 351.366)"/></g></g></g></svg>